# xmcd
#
# Track frame offsets:
#  150
#  14199
#  29480
#  48793
#  68728
#  71024
#  83051
#  95246
#  106393
#  117900
#  132076
#  134816
#
# Disc length: 2071 seconds
#
# Revision: 0
# Processed by: cddbd v1.5.2PL0 Copyright (c) Steve Scherf et al.
# Submitted via: Collectorz.com_Music_Collector 6.9
#
DISCID=b008150c
DTITLE=Dragonfly - Dragonfly
DYEAR=1968
DGENRE=Rock
TTITLE0=Blue Monday
TTITLE1=Enjoy Yourself
TTITLE2=Hootchie Kootchie Man
TTITLE3=I Feel It
TTITLE4=Trombodo
TTITLE5=Portrait Of Youth
TTITLE6=Crazy Woman
TTITLE7=She Don't Care
TTITLE8=Time Has Slipped Away
TTITLE9=To Be Free
TTITLE10=Darlin'
TTITLE11=Miles Away
EXTD=
EXTT0=
EXTT1=
EXTT2=
EXTT3=
EXTT4=
EXTT5=
EXTT6=
EXTT7=
EXTT8=
EXTT9=
EXTT10=
EXTT11=
PLAYORDER=
